# xmcd
#
# Track frame offsets:
#	182
#	25610
#	51362
#	61772
#
# Disc length: 1141 seconds
#
# Revision: 1
# Processed by: cddbd v1.5.1PL0 Copyright (c) Steve Scherf et al.
# Submitted via: audiograbber 1.83.01
#
DISCID=29047304
DTITLE=Patty Dart - Frederik
DYEAR=1994
DGENRE=Dance
TTITLE0=Frederik (D-Floorfiller Mix)
TTITLE1=Frederik (Extended Mix)
TTITLE2=Frederik (Acca-Acca-Pella-Pella)
TTITLE3=Going On (Play This Mix)
EXTD=
EXTT0=
EXTT1=
EXTT2=
EXTT3=
PLAYORDER=
